<svg width="643" height="350" viewBox="0 0 643 350" fill="none" xmlns="http://www.w3.org/2000/svg">
<mask id="path-1-outside-1_1_363" maskUnits="userSpaceOnUse" x="-4" y="-3.47437" width="653" height="359" fill="black">
<rect fill="white" x="-4" y="-3.47437" width="653" height="359"/>
<path d="M213.495 0.94113H286.561V225.369C286.561 250.567 280.542 272.616 268.505 291.516C256.581 310.415 239.875 325.152 218.389 335.726C196.902 346.188 171.872 351.419 143.298 351.419C114.612 351.419 89.5259 346.188 68.0394 335.726C46.5528 325.152 29.8473 310.415 17.9229 291.516C5.99838 272.616 0.0361521 250.567 0.0361521 225.369V0.94113H73.1016V219.125C73.1016 232.287 75.9702 243.986 81.7075 254.224C87.5572 264.461 95.7694 272.504 106.344 278.354C116.918 284.203 129.237 287.128 143.298 287.128C157.473 287.128 169.791 284.203 180.253 278.354C190.828 272.504 198.983 264.461 204.721 254.224C210.57 243.986 213.495 232.287 213.495 219.125V0.94113ZM415.185 0.94113L484.875 118.723H487.575L557.603 0.94113H640.118L534.654 173.733L642.481 346.526H558.447L487.575 228.575H484.875L414.004 346.526H330.307L438.471 173.733L332.332 0.94113H415.185Z"/>
</mask>
<path d="M213.495 0.94113H286.561V225.369C286.561 250.567 280.542 272.616 268.505 291.516C256.581 310.415 239.875 325.152 218.389 335.726C196.902 346.188 171.872 351.419 143.298 351.419C114.612 351.419 89.5259 346.188 68.0394 335.726C46.5528 325.152 29.8473 310.415 17.9229 291.516C5.99838 272.616 0.0361521 250.567 0.0361521 225.369V0.94113H73.1016V219.125C73.1016 232.287 75.9702 243.986 81.7075 254.224C87.5572 264.461 95.7694 272.504 106.344 278.354C116.918 284.203 129.237 287.128 143.298 287.128C157.473 287.128 169.791 284.203 180.253 278.354C190.828 272.504 198.983 264.461 204.721 254.224C210.57 243.986 213.495 232.287 213.495 219.125V0.94113ZM415.185 0.94113L484.875 118.723H487.575L557.603 0.94113H640.118L534.654 173.733L642.481 346.526H558.447L487.575 228.575H484.875L414.004 346.526H330.307L438.471 173.733L332.332 0.94113H415.185Z" fill="white" fill-opacity="0.5"/>
<path d="M213.495 0.941132V-2.6015H209.953V0.941132H213.495ZM286.561 0.941132H290.103V-2.6015H286.561V0.941132ZM268.505 291.516L265.517 289.612L265.513 289.619L265.509 289.625L268.505 291.516ZM218.389 335.726L219.94 338.911L219.946 338.908L219.953 338.905L218.389 335.726ZM68.0394 335.726L66.475 338.905L66.4818 338.908L66.4885 338.911L68.0394 335.726ZM17.9229 291.516L14.9267 293.406L17.9229 291.516ZM0.0361519 0.941132V-2.6015H-3.50648V0.941132H0.0361519ZM73.1016 0.941132H76.6443V-2.6015H73.1016V0.941132ZM81.7075 254.224L78.6171 255.956L78.6243 255.968L78.6316 255.981L81.7075 254.224ZM106.344 278.354L104.629 281.454L106.344 278.354ZM180.253 278.354L178.538 275.254L178.531 275.258L178.524 275.262L180.253 278.354ZM204.721 254.224L201.645 252.466L201.638 252.479L201.63 252.492L204.721 254.224ZM213.495 4.48376H286.561V-2.6015H213.495V4.48376ZM283.018 0.941132V225.369H290.103V0.941132H283.018ZM283.018 225.369C283.018 249.98 277.148 271.351 265.517 289.612L271.493 293.419C283.936 273.882 290.103 251.155 290.103 225.369H283.018ZM265.509 289.625C253.959 307.931 237.768 322.24 216.825 332.548L219.953 338.905C241.983 328.063 259.203 312.898 271.501 293.406L265.509 289.625ZM216.838 332.541C195.92 342.726 171.439 347.877 143.298 347.877V354.962C172.306 354.962 197.885 349.65 219.94 338.911L216.838 332.541ZM143.298 347.877C115.043 347.877 90.5063 342.725 69.5902 332.541L66.4885 338.911C88.5455 349.651 114.181 354.962 143.298 354.962V347.877ZM69.6037 332.548C48.6604 322.24 32.4691 307.931 20.919 289.625L14.9267 293.406C27.2255 312.898 44.4452 328.063 66.475 338.905L69.6037 332.548ZM20.919 289.625C9.39566 271.362 3.57878 249.986 3.57878 225.369H-3.50648C-3.50648 251.149 2.6011 273.871 14.9267 293.406L20.919 289.625ZM3.57878 225.369V0.941132H-3.50648V225.369H3.57878ZM0.0361519 4.48376H73.1016V-2.6015H0.0361519V4.48376ZM69.559 0.941132V219.125H76.6443V0.941132H69.559ZM69.559 219.125C69.559 232.818 72.5486 245.127 78.6171 255.956L84.7979 252.492C79.3919 242.845 76.6443 231.756 76.6443 219.125H69.559ZM78.6316 255.981C84.8118 266.797 93.5013 275.298 104.629 281.454L108.059 275.254C98.0374 269.71 90.3026 262.125 84.7834 252.466L78.6316 255.981ZM104.629 281.454C115.809 287.638 128.736 290.671 143.298 290.671V283.586C129.738 283.586 118.028 280.769 108.059 275.254L104.629 281.454ZM143.298 290.671C157.967 290.671 170.903 287.641 181.982 281.446L178.524 275.262C168.679 280.766 156.978 283.586 143.298 283.586V290.671ZM181.968 281.454C193.101 275.295 201.742 266.785 207.811 255.956L201.63 252.492C196.225 262.136 188.554 269.713 178.538 275.254L181.968 281.454ZM207.797 255.981C213.987 245.149 217.038 232.83 217.038 219.125H209.953C209.953 231.744 207.154 242.824 201.645 252.466L207.797 255.981ZM217.038 219.125V0.941132H209.953V219.125H217.038ZM415.185 0.941132L418.234 -0.862877L417.205 -2.6015H415.185V0.941132ZM484.875 118.723L481.826 120.527L482.855 122.266H484.875V118.723ZM487.575 118.723V122.266H489.59L490.62 120.534L487.575 118.723ZM557.603 0.941132V-2.6015H555.588L554.558 -0.869339L557.603 0.941132ZM640.118 0.941132L643.142 2.78677L646.431 -2.6015H640.118V0.941132ZM534.654 173.733L531.63 171.888L530.491 173.754L531.649 175.609L534.654 173.733ZM642.481 346.526V350.068H648.867L645.486 344.65L642.481 346.526ZM558.447 346.526L555.41 348.35L556.443 350.068H558.447V346.526ZM487.575 228.575L490.612 226.75L489.58 225.032H487.575V228.575ZM484.875 228.575V225.032H482.871L481.839 226.75L484.875 228.575ZM414.004 346.526V350.068H416.008L417.04 348.35L414.004 346.526ZM330.307 346.526L327.304 344.646L323.91 350.068H330.307V346.526ZM438.471 173.733L441.474 175.613L442.64 173.751L441.49 171.879L438.471 173.733ZM332.332 0.941132V-2.6015H325.998L329.314 2.79535L332.332 0.941132ZM412.136 2.74514L481.826 120.527L487.924 116.919L418.234 -0.862877L412.136 2.74514ZM484.875 122.266H487.575V115.181H484.875V122.266ZM490.62 120.534L560.648 2.75159L554.558 -0.869339L484.53 116.913L490.62 120.534ZM557.603 4.48376H640.118V-2.6015H557.603V4.48376ZM637.094 -0.904503L531.63 171.888L537.678 175.579L643.142 2.78677L637.094 -0.904503ZM531.649 175.609L639.475 348.401L645.486 344.65L537.66 171.858L531.649 175.609ZM642.481 342.983H558.447V350.068H642.481V342.983ZM561.484 344.701L490.612 226.75L484.539 230.399L555.41 348.35L561.484 344.701ZM487.575 225.032H484.875V232.117H487.575V225.032ZM481.839 226.75L410.967 344.701L417.04 348.35L487.912 230.399L481.839 226.75ZM414.004 342.983H330.307V350.068H414.004V342.983ZM333.31 348.405L441.474 175.613L435.468 171.854L327.304 344.646L333.31 348.405ZM441.49 171.879L335.351 -0.913086L329.314 2.79535L435.453 175.588L441.49 171.879ZM332.332 4.48376H415.185V-2.6015H332.332V4.48376Z" fill="#FC3314" mask="url(#path-1-outside-1_1_363)"/>
</svg>
