<svg width="313" height="347" viewBox="0 0 313 347" fill="none" xmlns="http://www.w3.org/2000/svg">
<mask id="path-1-outside-1_1_364" maskUnits="userSpaceOnUse" x="-5.91479" y="-3.47412" width="326" height="354" fill="black">
<rect fill="white" x="-5.91479" y="-3.47412" width="326" height="354"/>
<path d="M85.6308 0.941374L155.321 118.724H158.021L228.049 0.941374H310.564L205.1 173.734L312.927 346.526H228.893L158.021 228.575H155.321L84.4496 346.526H0.753342L108.917 173.734L2.77825 0.941374H85.6308Z"/>
</mask>
<path d="M85.6308 0.941374L155.321 118.724H158.021L228.049 0.941374H310.564L205.1 173.734L312.927 346.526H228.893L158.021 228.575H155.321L84.4496 346.526H0.753342L108.917 173.734L2.77825 0.941374H85.6308Z" fill="#FC3314"/>
<path d="M85.6308 0.941376L88.6797 -0.862633L87.651 -2.60126H85.6308V0.941376ZM155.321 118.724L152.273 120.528L153.301 122.266H155.321V118.724ZM158.021 118.724V122.266H160.036L161.066 120.534L158.021 118.724ZM228.049 0.941376V-2.60126H226.034L225.004 -0.869095L228.049 0.941376ZM310.564 0.941376L313.588 2.78701L316.877 -2.60126H310.564V0.941376ZM205.1 173.734L202.077 171.888L200.937 173.754L202.095 175.609L205.1 173.734ZM312.927 346.526V350.069H319.313L315.932 344.65L312.927 346.526ZM228.893 346.526L225.856 348.35L226.889 350.069H228.893V346.526ZM158.021 228.575L161.058 226.75L160.026 225.032H158.021V228.575ZM155.321 228.575V225.032H153.317L152.285 226.75L155.321 228.575ZM84.4496 346.526V350.069H86.4539L87.4862 348.35L84.4496 346.526ZM0.753342 346.526L-2.24949 344.646L-5.64374 350.069H0.753342V346.526ZM108.917 173.734L111.92 175.613L113.086 173.751L111.936 171.879L108.917 173.734ZM2.77825 0.941376V-2.60126H-3.55544L-0.240378 2.79559L2.77825 0.941376ZM82.5819 2.74538L152.273 120.528L158.37 116.92L88.6797 -0.862633L82.5819 2.74538ZM155.321 122.266H158.021V115.181H155.321V122.266ZM161.066 120.534L231.094 2.75184L225.004 -0.869095L154.976 116.913L161.066 120.534ZM228.049 4.48401H310.564V-2.60126H228.049V4.48401ZM307.541 -0.904259L202.077 171.888L208.124 175.579L313.588 2.78701L307.541 -0.904259ZM202.095 175.609L309.921 348.401L315.932 344.65L208.106 171.858L202.095 175.609ZM312.927 342.983H228.893V350.069H312.927V342.983ZM231.93 344.701L161.058 226.75L154.985 230.4L225.856 348.35L231.93 344.701ZM158.021 225.032H155.321V232.118H158.021V225.032ZM152.285 226.75L81.413 344.701L87.4862 348.35L158.358 230.4L152.285 226.75ZM84.4496 342.983H0.753342V350.069H84.4496V342.983ZM3.75617 348.406L111.92 175.613L105.914 171.854L-2.24949 344.646L3.75617 348.406ZM111.936 171.879L5.79688 -0.912842L-0.240378 2.79559L105.899 175.588L111.936 171.879ZM2.77825 4.48401H85.6308V-2.60126H2.77825V4.48401Z" fill="#FC3314" mask="url(#path-1-outside-1_1_364)"/>
</svg>
